<svg xmlns="http://www.w3.org/2000/svg" width="48.82" height="48.818" viewBox="-143.91 -0.409 48.82 48.818" xml:space="preserve"><g fill="currentColor"><path d="M-119.5-.409c-13.46 0-24.41 10.949-24.41 24.408 0 13.46 10.95 24.41 24.41 24.41s24.41-10.95 24.41-24.41c0-13.459-10.95-24.408-24.41-24.408zm0 46.818c-12.356 0-22.41-10.054-22.41-22.41 0-12.354 10.054-22.408 22.41-22.408 12.357 0 22.41 10.054 22.41 22.408 0 12.356-10.053 22.41-22.41 22.41z"/><path d="m-131.842 27.771 1.414 1.417 10.928-10.927 10.926 10.927 1.414-1.417-12.34-12.337z"/></g></svg>
