<svg xmlns="http://www.w3.org/2000/svg" width="21.505" height="21.504" viewBox="-242.752 13.248 21.505 21.504" xml:space="preserve"><path d="M-230.708 17.111a5.783 5.783 0 0 1 0 8.182 5.785 5.785 0 1 1 0-8.182m1.535-1.533a7.954 7.954 0 1 0-11.25 11.25c2.846 2.844 7.307 3.074 10.424.707l7.217 7.217 1.535-1.533-7.217-7.217c2.366-3.117 2.137-7.578-.709-10.424"/><path fill="currentColor" d="M-222.343 102.967c12.929 0 23.41-10.48 23.41-23.41 0-12.928-10.481-23.408-23.41-23.408-12.93 0-23.41 10.479-23.41 23.408 0 12.929 10.481 23.41 23.41 23.41"/></svg>
