<?xml version="1.0" standalone="no"?>
<!DOCTYPE svg PUBLIC "-//W3C//DTD SVG 20010904//EN"
 "http://www.w3.org/TR/2001/REC-SVG-20010904/DTD/svg10.dtd">
<svg version="1.0" xmlns="http://www.w3.org/2000/svg"
 width="587.000000pt" height="587.000000pt" viewBox="0 0 587.000000 587.000000"
 preserveAspectRatio="xMidYMid meet">
<metadata>
Created by potrace 1.14, written by Peter Selinger 2001-2017
</metadata>
<g transform="translate(0.000000,587.000000) scale(0.100000,-0.100000)"
fill="#000000" stroke="none">
<path d="M2504 5450 c-230 -231 -418 -424 -417 -429 2 -5 333 -341 738 -745
404 -404 735 -736 735 -738 0 -2 -795 -4 -1767 -3 -973 0 -1774 -1 -1780 -3
-10 -3 -13 -131 -13 -597 0 -556 1 -593 18 -596 9 -3 810 -4 1780 -4 969 1
1762 -1 1762 -3 0 -2 -333 -336 -740 -743 -407 -407 -740 -741 -740 -743 0 -2
190 -193 422 -425 l422 -421 1393 1393 c767 765 1428 1426 1469 1467 l75 74
-643 644 c-354 354 -663 662 -687 685 -24 23 -60 60 -80 81 -20 21 -41 44 -48
50 -6 6 -342 341 -745 743 l-734 733 -420 -420z"/>
</g>
</svg>
