<?xml version="1.0" encoding="utf-8"?><svg xmlns="http://www.w3.org/2000/svg" xmlns:xlink="http://www.w3.org/1999/xlink"><symbol viewBox="-143.91 -0.409 48.82 48.818" id="i-circle-chevron-up" xmlns="http://www.w3.org/2000/svg"><g fill="currentColor"><path d="M-119.5-.409c-13.46 0-24.41 10.949-24.41 24.408 0 13.46 10.95 24.41 24.41 24.41s24.41-10.95 24.41-24.41c0-13.459-10.95-24.408-24.41-24.408zm0 46.818c-12.356 0-22.41-10.054-22.41-22.41 0-12.354 10.054-22.408 22.41-22.408 12.357 0 22.41 10.054 22.41 22.408 0 12.356-10.053 22.41-22.41 22.41z"/><path d="M-131.842 27.771l1.414 1.417 10.928-10.927 10.926 10.927 1.414-1.417-12.34-12.337z"/></g></symbol><symbol viewBox="0 0 17.893 13.125" id="i-envelope" xmlns="http://www.w3.org/2000/svg"><path fill="currentColor" d="M0 0v13.125h17.893V0H0zm14.508 2L8.946 6.045 3.384 2h11.124zM2 11.125V3.466l6.946 5.052 6.945-5.052v7.659H2z"/></symbol><symbol viewBox="-242.752 13.248 21.505 21.504" id="i-search" xmlns="http://www.w3.org/2000/svg"><path d="M-230.708 17.111a5.783 5.783 0 010 8.182 5.785 5.785 0 110-8.182m1.535-1.533a7.954 7.954 0 10-11.25 11.25c2.846 2.844 7.307 3.074 10.424.707l7.217 7.217 1.535-1.533-7.217-7.217c2.366-3.117 2.137-7.578-.709-10.424"/><path fill="currentColor" d="M-222.343 102.967c12.929 0 23.41-10.48 23.41-23.41 0-12.928-10.481-23.408-23.41-23.408-12.93 0-23.41 10.479-23.41 23.408 0 12.929 10.481 23.41 23.41 23.41"/></symbol><symbol viewBox="-593.364 16.492 233.807 102.68" id="logo-re-set" xmlns="http://www.w3.org/2000/svg"><path d="M-548.457 28.598c6.858 0 10.913 2.266 11.331 7.514h-23.08c1.253-5.548 5.965-7.514 11.749-7.514m11.332 16.877c-1.014 3.041-4.592 4.711-10.614 4.711-7.574 0-12.227-2.862-12.764-9.125h31.487v-2.146c0-11.15-8.825-15.744-19.44-15.744-11.749 0-20.336 6.441-20.336 16.104v.477c0 9.78 8.469 15.863 20.872 15.863 10.438 0 17.176-3.519 18.666-10.139h-7.871v-.001zm-56.237 9.541h8.17V39.63c0-7.336 6.262-9.78 14.371-9.481v-6.681c-7.217-.06-11.928 1.968-14.371 6.978v-6.619h-8.17v31.189zm227.66.536c2.863 0 4.652-.356 6.146-.774v-5.844c-1.373.416-2.744.596-4.594.596-3.519 0-5.427-1.072-5.427-5.068v-15.03h9.841v-5.604h-9.841v-7.335h-8.229v7.335h-5.783v5.604h5.783v15.565c-.002 7.096 4.174 10.555 12.104 10.555m-39.358-26.954c6.856 0 10.912 2.267 11.33 7.514h-23.078c1.252-5.548 5.963-7.514 11.748-7.514m11.331 16.877c-1.015 3.041-4.592 4.711-10.615 4.711-7.574 0-12.227-2.861-12.764-9.125h31.487v-2.146c0-11.151-8.825-15.744-19.438-15.744-11.748 0-20.336 6.44-20.336 16.103v.478c0 9.778 8.467 15.862 20.871 15.862 10.438 0 17.176-3.52 18.666-10.139h-7.871zm-51.883 10.136c11.032 0 17.057-3.637 17.057-10.077 0-6.8-5.666-8.647-16.521-9.603-7.217-.773-9.78-1.608-9.78-3.936s3.16-3.52 8.229-3.52c5.545 0 8.23 1.252 9.185 4.114h7.635c-1.135-7.036-7.754-9.422-16.76-9.422-8.349 0-15.922 3.041-15.922 9.481 0 5.785 4.354 8.17 15.147 9.304 7.812.774 10.793 1.67 10.793 4.354 0 2.623-2.684 3.994-9.125 3.994-6.678 0-9.602-1.908-10.137-5.068h-7.752c.417 6.623 6.798 10.44 17.951 10.379"/><path fill="#33B7B7" d="M-475.085 34.003l-12.13-12.129-4.916 4.916 8.654 8.653H-520.1v6.952h36.625l-8.656 8.654 4.916 4.916 12.13-12.13 4.916-4.916z"/><path d="M-505.987 119.055h1.602v-6.078h-1.602v6.078zm.789-6.951c.545 0 .952-.338.952-.813s-.407-.812-.952-.812c-.548 0-.966.336-.966.812s.419.813.966.813m-5.896 7.068c2.385 0 3.582-1.021 3.768-2.383h-1.465c-.174.848-.93 1.279-2.244 1.279-1.477 0-2.43-.688-2.43-1.988v-.094c0-1.269.978-2 2.406-2 1.221 0 1.908.395 2.129 1.139h1.533c-.222-1.615-1.744-2.277-3.687-2.277-2.241 0-4.021 1.221-4.021 3.139v.095c.001 1.951 1.71 3.09 4.011 3.09m-9.16-1.035c-1.104 0-1.651-.312-1.651-.871 0-.664.594-.885 1.907-.885h2.013v.467c-.002.859-1.025 1.289-2.269 1.289m-.373 1.035c1.351 0 2.164-.303 2.664-.941v.824h1.568v-3.893c0-1.758-1.418-2.314-3.289-2.314-1.791 0-3.291.58-3.478 2h1.533c.141-.617.791-.92 1.861-.92 1.221 0 1.779.361 1.779 1.258v.222h-2.048c-2.149 0-3.465.532-3.465 1.893.003 1.303 1.293 1.871 2.875 1.871m-16.288-.117h1.592v-3.395c0-1.104.978-1.627 2.035-1.627 1.07 0 1.628.441 1.628 1.51v3.512h1.593v-3.395c0-1.104.965-1.627 2.021-1.627 1.082 0 1.652.441 1.652 1.51v3.512h1.592v-3.639c0-1.859-1.185-2.568-2.72-2.568-1.128 0-2.245.359-2.825 1.289-.385-.93-1.244-1.289-2.396-1.289-1.267 0-2.175.523-2.582 1.267v-1.138h-1.591l.001 6.078zm-5.709 0h1.592v-2.998c0-1.432 1.221-1.908 2.803-1.85v-1.301c-1.407-.012-2.325.383-2.803 1.359v-1.289h-1.592v6.079zm-5.523-.987c-1.523 0-2.523-.769-2.523-2.012v-.095c0-1.231 1.035-2 2.523-2 1.477 0 2.512.769 2.512 2.013v.094c0 1.221-1.035 2-2.512 2m-.023 1.104c2.361 0 4.174-1.23 4.174-3.127v-.094c0-1.861-1.812-3.104-4.149-3.104s-4.162 1.254-4.162 3.139v.094c-.002 1.861 1.776 3.092 4.137 3.092m-8.185-.117h1.593v-4.988h2.022v-1.09h-2.022v-.432c0-.686.44-1.059 1.243-1.059.313 0 .558.047.779.082v-1.104c-.313-.082-.561-.094-.966-.094-1.615 0-2.649.721-2.649 2.174v.433h-1.163v1.09h1.163v4.988zm-5.081.117c2.15 0 3.324-.709 3.324-1.965 0-1.326-1.104-1.686-3.222-1.873-1.405-.15-1.905-.312-1.905-.766 0-.455.614-.688 1.604-.688 1.082 0 1.604.244 1.791.804h1.486c-.222-1.371-1.511-1.836-3.269-1.836-1.627 0-3.102.592-3.102 1.848 0 1.129.848 1.594 2.951 1.813 1.522.15 2.104.326 2.104.851 0 .512-.522.776-1.779.776-1.303 0-1.872-.37-1.977-.985h-1.51c.086 1.288 1.329 2.033 3.504 2.021m-11.871-.117h1.592v-3.348c0-1.15 1.023-1.674 2.176-1.674 1.222 0 1.837.465 1.837 1.545v3.477h1.593v-3.615c0-1.85-1.162-2.592-2.836-2.592-1.407 0-2.385.547-2.77 1.277v-1.148h-1.592v6.078zm-5.662-.918c-1.104 0-1.651-.312-1.651-.871 0-.664.594-.885 1.907-.885h2.012v.467c-.001.859-1.024 1.289-2.268 1.289m-.373 1.035c1.35 0 2.164-.303 2.664-.941v.824h1.568v-3.893c0-1.758-1.417-2.314-3.29-2.314-1.791 0-3.29.58-3.477 2h1.533c.141-.617.791-.92 1.861-.92 1.221 0 1.778.361 1.778 1.258v.222h-2.047c-2.15 0-3.465.532-3.465 1.893.004 1.303 1.295 1.871 2.875 1.871m-7.963-.117h1.592v-2.998c0-1.432 1.221-1.908 2.802-1.85v-1.301c-1.405-.012-2.324.383-2.802 1.359v-1.289h-1.592v6.079zm-2.57.105c.559 0 .906-.07 1.197-.152v-1.137c-.268.08-.535.115-.896.115-.688 0-1.059-.209-1.059-.988v-2.932h1.918v-1.09h-1.918v-1.433h-1.604v1.433h-1.128v1.09h1.128v3.037c.002 1.383.815 2.057 2.362 2.057m139.706-17.43c1.406 0 2.359-.521 2.732-1.254v1.139h1.604v-6.08h-1.604v3.348c0 1.152-1 1.676-2.164 1.676-1.209 0-1.791-.453-1.791-1.522v-3.5h-1.592v3.629c.001 1.787 1.139 2.564 2.815 2.564m-8.256-1.101c-1.522 0-2.522-.77-2.522-2.014v-.092c0-1.232 1.034-2.002 2.522-2.002 1.478 0 2.512.77 2.512 2.014v.092c0 1.223-1.035 2.002-2.512 2.002m-.023 1.101c2.36 0 4.174-1.23 4.174-3.127v-.093c0-1.86-1.812-3.104-4.15-3.104s-4.162 1.254-4.162 3.139v.093c-.001 1.862 1.776 3.092 4.138 3.092m-11.184-.115h1.592v-3l3.406 3h2l-3.779-3.301 3.513-2.779h-1.886l-3.254 2.686v-5.242h-1.592v8.636zm-5.082.115c2.383 0 3.58-1.021 3.767-2.381h-1.466c-.174.848-.93 1.278-2.243 1.278-1.475 0-2.43-.688-2.43-1.989v-.093c0-1.271.978-2.002 2.408-2.002 1.221 0 1.906.396 2.127 1.142h1.535c-.221-1.617-1.744-2.277-3.687-2.277-2.243 0-4.022 1.219-4.022 3.139v.092c0 1.955 1.709 3.091 4.011 3.091m-7.009-.115h1.604v-6.078h-1.604v6.078zm.789-6.953c.547 0 .953-.338.953-.812 0-.477-.406-.812-.953-.812-.545 0-.965.336-.965.812 0 .474.42.812.965.812m-6.65 5.664c-1.358 0-2.418-.676-2.418-1.861v-.092c0-1.164.873-1.852 2.408-1.852 1.477 0 2.521.664 2.521 1.838v.094c0 1.211-1.103 1.873-2.511 1.873m.011 3.498c2.42 0 4.045-.918 4.045-2.883v-5.406h-1.591v1.059c-.465-.699-1.407-1.186-2.86-1.186-2.15 0-3.662 1.207-3.662 2.986v.094c0 1.838 1.58 2.916 3.662 2.916 1.336 0 2.396-.533 2.86-1.195v.697c0 1.268-.93 1.838-2.477 1.838-1.455 0-2.152-.326-2.326-1.014h-1.592c.187 1.258 1.338 2.094 3.941 2.094m-9.127-3.195c-1.522 0-2.522-.77-2.522-2.014v-.092c0-1.232 1.035-2.002 2.522-2.002 1.478 0 2.513.77 2.513 2.014v.092c-.001 1.223-1.036 2.002-2.513 2.002m-.023 1.101c2.361 0 4.174-1.23 4.174-3.127v-.093c0-1.86-1.812-3.104-4.149-3.104-2.339 0-4.162 1.254-4.162 3.139v.093c-.002 1.862 1.777 3.092 4.137 3.092m-7.137-.115h1.59v-8.639h-1.59v8.639zm-5.558-.986c-1.522 0-2.522-.77-2.522-2.014v-.092c0-1.232 1.035-2.002 2.522-2.002 1.478 0 2.513.77 2.513 2.014v.092c-.001 1.223-1.037 2.002-2.513 2.002m-.024 1.101c2.36 0 4.174-1.23 4.174-3.127v-.093c0-1.86-1.812-3.104-4.15-3.104s-4.162 1.254-4.162 3.139v.093c-.001 1.862 1.777 3.092 4.138 3.092m-11.183-.115h1.592v-3l3.406 3h2l-3.778-3.301 3.512-2.779h-1.885l-3.255 2.686v-5.242h-1.592v8.636zm-5.141-5.15c1.338 0 2.129.441 2.209 1.467h-4.5c.244-1.084 1.162-1.467 2.291-1.467m2.209 3.291c-.196.594-.896.918-2.069.918-1.478 0-2.384-.559-2.488-1.779h6.139v-.418c0-2.174-1.719-3.067-3.789-3.067-2.291 0-3.965 1.254-3.965 3.139v.093c0 1.907 1.649 3.092 4.068 3.092 2.035 0 3.35-.685 3.641-1.976l-1.537-.002zm-10.928-.803h3.612v-1.174h-3.612v1.174zm-5.594-4.197h1.257l1.594-1.768h-1.116l-1.093.791-1.07-.791h-1.141l1.569 1.768zm.686 1.709c1.339 0 2.129.441 2.211 1.467h-4.502c.244-1.084 1.164-1.467 2.291-1.467m2.211 3.291c-.198.594-.896.918-2.07.918-1.477 0-2.385-.559-2.487-1.779h6.139v-.418c0-2.174-1.721-3.067-3.791-3.067-2.291 0-3.963 1.254-3.963 3.139v.093c0 1.907 1.648 3.092 4.067 3.092 2.035 0 3.349-.685 3.64-1.976l-1.535-.002zm-14.661 1.859h1.591v-3.35c0-1.15 1.023-1.675 2.175-1.675 1.223 0 1.84.466 1.84 1.548v3.477h1.59V98c0-1.85-1.162-2.592-2.836-2.592-1.406 0-2.384.545-2.769 1.277v-1.15h-1.591v6.08zm-3.513 0h1.592v-8.639h-1.592v8.639zm-5.859-6.859h1.15l1.432-1.801h-1.745l-.837 1.801zm.163 5.941c-1.104 0-1.652-.314-1.652-.873 0-.662.594-.883 1.907-.883h2.014v.465c-.001.862-1.026 1.291-2.269 1.291m-.373 1.033c1.352 0 2.164-.301 2.664-.939v.824h1.567V97.72c0-1.756-1.416-2.312-3.289-2.312-1.791 0-3.291.58-3.478 1.998h1.534c.14-.615.791-.92 1.86-.92 1.222 0 1.78.361 1.78 1.258v.221h-2.048c-2.15 0-3.464.535-3.464 1.895.004 1.302 1.293 1.87 2.874 1.87m-5.882-.115h1.603v-6.078h-1.603v6.078zm.789-6.953c.547 0 .953-.338.953-.812 0-.477-.406-.812-.953-.812-.545 0-.963.336-.963.812 0 .474.418.812.963.812m-5.895 7.068c2.384 0 3.581-1.021 3.769-2.381h-1.465c-.175.848-.932 1.278-2.244 1.278-1.479 0-2.431-.688-2.431-1.989v-.093c0-1.271.978-2.002 2.406-2.002 1.221 0 1.906.396 2.127 1.142h1.535c-.221-1.617-1.744-2.277-3.686-2.277-2.244 0-4.021 1.219-4.021 3.139v.092c.001 1.955 1.709 3.091 4.01 3.091m-9.021-1.101c-1.523 0-2.523-.77-2.523-2.014v-.092c0-1.232 1.035-2.002 2.523-2.002 1.477 0 2.512.77 2.512 2.014v.092c0 1.223-1.036 2.002-2.512 2.002m-.024 1.101c2.361 0 4.174-1.23 4.174-3.127v-.093c0-1.86-1.812-3.104-4.149-3.104s-4.161 1.254-4.161 3.139v.093c-.001 1.862 1.775 3.092 4.136 3.092m-8.312 0c2.149 0 3.324-.707 3.324-1.963 0-1.326-1.104-1.687-3.221-1.873-1.406-.15-1.906-.312-1.906-.769 0-.453.615-.687 1.604-.687 1.082 0 1.604.244 1.792.804h1.486c-.222-1.371-1.511-1.836-3.268-1.836-1.628 0-3.104.592-3.104 1.848 0 1.127.849 1.593 2.953 1.812 1.522.152 2.104.326 2.104.851 0 .513-.522.778-1.779.778-1.303 0-1.872-.372-1.978-.987h-1.511c.086 1.292 1.328 2.036 3.504 2.022m87.768-18.542c-1.521 0-2.522-.768-2.522-2.012v-.094c0-1.232 1.037-2 2.522-2 1.479 0 2.515.768 2.515 2.014v.092c-.002 1.22-1.037 2-2.515 2m-.022 1.103c2.36 0 4.172-1.23 4.172-3.127v-.094c0-1.861-1.812-3.103-4.15-3.103-2.336 0-4.16 1.255-4.16 3.138v.094c-.001 1.862 1.777 3.092 4.138 3.092m-9.162-.115h1.592v-3c0-1.432 1.221-1.906 2.803-1.85v-1.301c-1.407-.012-2.325.383-2.803 1.358v-1.289h-1.592v6.082zm-5.418-1.012c-1.465 0-2.523-.65-2.523-1.986v-.094c0-1.326 1.115-2.002 2.513-2.002 1.372 0 2.44.688 2.44 2.014v.092c0 1.267-.895 1.976-2.43 1.976m-4.068 3.012h1.592v-3.068c.453.697 1.406 1.185 2.859 1.185 2.152 0 3.686-1.185 3.686-3.14v-.092c0-1.955-1.58-3.092-3.672-3.092-1.35 0-2.408.533-2.873 1.219v-1.092h-1.592v8.08zm-8.965-2.918c-1.105 0-1.652-.314-1.652-.873 0-.662.594-.885 1.908-.885h2.012v.467c-.001.859-1.024 1.291-2.268 1.291m-.373 1.033c1.35 0 2.164-.303 2.664-.939v.824h1.567v-3.895c0-1.756-1.417-2.312-3.289-2.312-1.792 0-3.291.58-3.477 1.998h1.533c.14-.617.791-.918 1.86-.918 1.222 0 1.779.359 1.779 1.256v.221h-2.047c-2.151 0-3.465.535-3.465 1.894.004 1.303 1.293 1.871 2.875 1.871m-16.287-.115h1.591V80.78c0-1.104.979-1.628 2.036-1.628 1.07 0 1.628.441 1.628 1.513v3.512h1.591v-3.396c0-1.104.967-1.627 2.023-1.627 1.082 0 1.652.441 1.652 1.512v3.512h1.592v-3.641c0-1.859-1.187-2.566-2.72-2.566-1.13 0-2.245.359-2.825 1.289-.385-.93-1.244-1.289-2.396-1.289-1.269 0-2.175.521-2.582 1.266v-1.139h-1.591l.001 6.078zm-5.709 0h1.591v-3c0-1.432 1.222-1.906 2.803-1.85v-1.301c-1.406-.012-2.324.383-2.803 1.358v-1.289h-1.591v6.082zm-5.524-.988c-1.523 0-2.523-.768-2.523-2.012v-.094c0-1.232 1.035-2 2.523-2 1.477 0 2.512.768 2.512 2.014v.092c0 1.22-1.035 2-2.512 2m-.023 1.103c2.36 0 4.174-1.23 4.174-3.127v-.094c0-1.861-1.812-3.103-4.149-3.103-2.339 0-4.162 1.255-4.162 3.138v.094c-.002 1.862 1.775 3.092 4.137 3.092m-8.185-.115h1.591v-4.988h2.022v-1.092h-2.022v-.432c0-.686.441-1.059 1.244-1.059.313 0 .559.047.778.082v-1.104c-.313-.082-.559-.094-.965-.094-1.615 0-2.648.721-2.648 2.174v.433h-1.163v1.092h1.163v4.988zm-3.082.103c.558 0 .905-.07 1.196-.15V82.99a2.911 2.911 0 01-.896.117c-.687 0-1.059-.211-1.059-.99v-2.93h1.919v-1.093h-1.919v-1.43h-1.603v1.43h-1.129v1.093h1.129v3.035c.004 1.383.816 2.057 2.362 2.057m-8.429-1.021c-1.104 0-1.651-.314-1.651-.873 0-.662.594-.885 1.907-.885h2.013v.467c-.001.859-1.024 1.291-2.269 1.291m-.372 1.033c1.35 0 2.163-.303 2.663-.939v.824h1.568v-3.895c0-1.756-1.418-2.312-3.289-2.312-1.791 0-3.291.58-3.477 1.998h1.532c.141-.617.791-.918 1.861-.918 1.222 0 1.779.359 1.779 1.256v.221h-2.047c-2.152 0-3.464.535-3.464 1.894.003 1.303 1.292 1.871 2.874 1.871m-5.881-.115h1.591v-8.641h-1.591v8.641zm-7.268-4.057v-3.07h2.149c1.245 0 2.082.406 2.082 1.477v.048c0 1.022-.768 1.547-2.082 1.547l-2.149-.002zm-1.709 4.057h1.709V81.28h2.186c2.223 0 3.742-.894 3.742-2.755v-.047c0-1.826-1.486-2.614-3.801-2.614h-3.836v8.312z"/></symbol></svg>